<svg width="24" height="24" viewBox="0 0 24 24" fill="none" xmlns="http://www.w3.org/2000/svg" class="icon-hover"><path fill-rule="evenodd" clip-rule="evenodd" d="M19.5 23.25H15.5001C15.2926 23.25 15.125 23.0825 15.125 22.875V17.625C15.125 15.8988 13.7262 14.5 12 14.5C10.2738 14.5 8.875 15.8988 8.875 17.625V22.875C8.875 23.0825 8.70744 23.25 8.49994 23.25H4.5C2 23.25 0.75 22 0.75 19.5V11.5638C0.75 9.06628 1.40382 8.6826 2.53757 7.7326L9.99255 1.48123C11.1538 0.507478 12.8476 0.507478 14.0088 1.48123L21.4638 7.7326C22.5963 8.6826 23.2512 9.06628 23.2512 11.5638V19.5C23.25 22 22 23.25 19.5 23.25Z" fill="#E7E7E7"/></svg>